<svg id="visual" viewBox="0 0 960 540" width="960" height="540" xmlns="http://www.w3.org/2000/svg" xmlns:xlink="http://www.w3.org/1999/xlink" version="1.1"><rect width="960" height="540" fill="#fafafa"></rect><g><g transform="translate(412 472)"><path d="M0 -135.5L117.3 -67.7L117.3 67.7L0 135.5L-117.3 67.7L-117.3 -67.7Z" fill="none" stroke="#297EA6" stroke-width="2"></path></g><g transform="translate(315 194)"><path d="M0 -133L115.2 -66.5L115.2 66.5L0 133L-115.2 66.5L-115.2 -66.5Z" fill="none" stroke="#297EA6" stroke-width="2"></path></g><g transform="translate(132 395)"><path d="M0 -107L92.7 -53.5L92.7 53.5L0 107L-92.7 53.5L-92.7 -53.5Z" fill="none" stroke="#297EA6" stroke-width="2"></path></g><g transform="translate(770 141)"><path d="M0 -127L110 -63.5L110 63.5L0 127L-110 63.5L-110 -63.5Z" stroke="#297EA6" fill="none" stroke-width="2"></path></g><g transform="translate(894 525)"><path d="M0 -105L90.9 -52.5L90.9 52.5L0 105L-90.9 52.5L-90.9 -52.5Z" stroke="#297EA6" fill="none" stroke-width="2"></path></g></g></svg>